<svg width="24" height="24" viewBox="0 0 24 24" fill="none" xmlns="http://www.w3.org/2000/svg"><path d="M5.643 9.069 C 5.291 9.193,5.000 9.614,5.000 10.000 C 5.000 10.080,5.029 10.234,5.065 10.343 C 5.124 10.523,5.405 10.816,8.255 13.671 C 10.509 15.929,11.429 16.826,11.556 16.887 C 11.800 17.006,12.065 17.024,12.326 16.940 C 12.529 16.874,12.701 16.710,15.671 13.745 C 17.929 11.492,18.826 10.571,18.887 10.444 C 19.078 10.053,19.005 9.602,18.702 9.300 C 18.423 9.021,18.047 8.936,17.657 9.065 C 17.478 9.124,17.212 9.377,14.730 11.854 L 12.000 14.579 9.270 11.854 C 6.788 9.377,6.522 9.124,6.343 9.065 C 6.101 8.985,5.876 8.986,5.643 9.069 " fill="#0D0D0D" stroke="none" fill-rule="evenodd"></path></svg>