<svg width="17" height="16" viewBox="0 0 17 16" fill="none" xmlns="http://www.w3.org/2000/svg"><path d="M11.276 1.565 C 11.057 1.676,10.954 1.907,11.020 2.135 C 11.050 2.235,11.226 2.424,12.178 3.379 L 13.302 4.505 9.351 4.505 C 5.405 4.505,5.401 4.505,5.279 4.564 C 4.917 4.740,4.912 5.257,5.271 5.441 C 5.379 5.496,5.452 5.497,9.341 5.497 L 13.301 5.497 12.164 6.637 C 11.163 7.641,11.024 7.790,11.006 7.886 C 10.932 8.287,11.248 8.598,11.628 8.498 C 11.729 8.471,11.946 8.266,13.312 6.904 C 14.176 6.042,14.904 5.294,14.934 5.236 C 15.017 5.076,15.006 4.884,14.906 4.730 C 14.775 4.528,11.820 1.597,11.695 1.545 C 11.549 1.485,11.424 1.491,11.276 1.565 M5.298 7.553 C 5.172 7.607,2.143 10.625,2.066 10.773 C 1.983 10.932,1.994 11.124,2.093 11.278 C 2.138 11.347,2.868 12.095,3.715 12.939 C 5.170 14.388,5.263 14.475,5.383 14.499 C 5.537 14.529,5.701 14.498,5.816 14.416 C 5.972 14.305,6.049 14.029,5.977 13.836 C 5.961 13.792,5.441 13.249,4.823 12.630 L 3.698 11.503 7.648 11.503 C 11.595 11.503,11.599 11.503,11.721 11.444 C 12.083 11.269,12.088 10.751,11.729 10.568 C 11.621 10.513,11.548 10.512,7.659 10.512 L 3.698 10.512 4.822 9.385 C 5.774 8.430,5.950 8.241,5.980 8.141 C 6.096 7.744,5.683 7.388,5.298 7.553 " fill="#959595" stroke="none" fill-rule="evenodd"></path></svg>