<svg width="24" height="24" viewBox="0 0 24 24" fill="none" xmlns="http://www.w3.org/2000/svg"><path d="M11.657 2.064 C 11.463 2.133,11.759 1.876,6.456 6.590 C 3.447 9.264,2.186 10.410,2.117 10.530 C 2.038 10.669,2.020 10.755,2.020 11.000 C 2.020 11.256,2.036 11.328,2.131 11.489 C 2.260 11.709,2.437 11.854,2.678 11.939 C 3.046 12.069,3.391 11.982,3.747 11.671 L 3.980 11.467 4.000 15.443 L 4.020 19.420 4.108 19.654 C 4.359 20.319,4.927 20.817,5.592 20.956 C 5.891 21.018,18.109 21.018,18.408 20.956 C 19.073 20.817,19.641 20.319,19.892 19.654 L 19.980 19.420 20.000 15.443 L 20.020 11.467 20.253 11.671 C 20.609 11.982,20.954 12.069,21.322 11.939 C 21.563 11.854,21.740 11.709,21.869 11.489 C 21.964 11.328,21.980 11.256,21.980 11.000 C 21.980 10.755,21.962 10.669,21.883 10.530 C 21.814 10.410,20.553 9.264,17.544 6.590 C 12.167 1.809,12.542 2.135,12.326 2.062 C 12.106 1.986,11.874 1.987,11.657 2.064 M15.024 7.022 L 17.996 9.660 17.998 14.330 L 18.000 19.000 16.500 19.000 L 15.000 19.000 15.000 16.427 C 15.000 13.522,15.008 13.606,14.700 13.298 C 14.395 12.993,14.429 12.997,11.936 13.009 L 9.738 13.020 9.539 13.122 C 9.316 13.237,9.104 13.488,9.042 13.711 C 9.015 13.806,9.000 14.783,9.000 16.430 L 9.000 19.000 7.500 19.000 L 6.000 19.000 6.002 14.330 L 6.004 9.660 8.990 7.009 C 10.633 5.552,11.993 4.364,12.014 4.371 C 12.034 4.378,13.389 5.571,15.024 7.022 M13.000 17.000 L 13.000 19.000 12.000 19.000 L 11.000 19.000 11.000 17.000 L 11.000 15.000 12.000 15.000 L 13.000 15.000 13.000 17.000 " fill="#0D0D0D" stroke="none" fill-rule="evenodd"></path></svg>