<svg width="24" height="24" viewBox="0 0 24 24" fill="none" xmlns="http://www.w3.org/2000/svg"><path d="M14.643 2.069 C 14.291 2.193,14.000 2.614,14.000 3.000 C 14.000 3.080,14.030 3.234,14.066 3.343 C 14.123 3.517,14.276 3.685,15.354 4.770 L 16.577 6.000 10.714 6.000 C 4.323 6.000,4.681 5.987,4.374 6.222 C 4.301 6.277,4.192 6.408,4.131 6.511 C 4.036 6.672,4.020 6.744,4.020 7.000 C 4.020 7.256,4.036 7.328,4.131 7.489 C 4.192 7.592,4.301 7.723,4.374 7.778 C 4.681 8.013,4.323 8.000,10.714 8.000 L 16.577 8.000 15.354 9.230 C 14.276 10.315,14.123 10.483,14.066 10.657 C 13.936 11.046,14.020 11.423,14.300 11.702 C 14.602 12.004,15.052 12.077,15.444 11.888 C 15.569 11.827,16.234 11.187,17.745 9.671 C 19.742 7.668,19.875 7.527,19.940 7.326 C 20.024 7.065,20.006 6.800,19.888 6.556 C 19.827 6.431,19.187 5.766,17.671 4.255 C 15.747 2.336,15.521 2.124,15.343 2.065 C 15.101 1.985,14.876 1.986,14.643 2.069 M8.640 12.068 C 8.486 12.121,8.152 12.437,6.329 14.255 C 4.813 15.766,4.173 16.431,4.112 16.556 C 3.994 16.800,3.976 17.065,4.060 17.326 C 4.125 17.527,4.258 17.668,6.255 19.671 C 7.766 21.187,8.431 21.827,8.556 21.888 C 8.948 22.077,9.398 22.004,9.700 21.702 C 9.980 21.423,10.064 21.046,9.934 20.657 C 9.877 20.483,9.724 20.315,8.646 19.230 L 7.423 18.000 13.284 18.000 C 19.869 18.000,19.379 18.023,19.701 17.701 C 20.092 17.310,20.092 16.690,19.701 16.299 C 19.379 15.977,19.869 16.000,13.284 16.000 L 7.423 16.000 8.646 14.770 C 9.724 13.685,9.877 13.517,9.934 13.343 C 10.064 12.954,9.979 12.577,9.701 12.299 C 9.423 12.021,9.027 11.935,8.640 12.068 " fill="#0D0D0D" stroke="none" fill-rule="evenodd"></path></svg>